<?xml version="1.0" encoding="UTF-8" standalone="no"?>
<!DOCTYPE svg PUBLIC "-//W3C//DTD SVG 1.1//EN"
 "http://www.w3.org/Graphics/SVG/1.1/DTD/svg11.dtd">
<!-- Generated by graphviz version 2.44.1 (20200629.0846)
 -->
<!-- Title: G Pages: 1 -->
<svg width="1397pt" height="923pt"
 viewBox="0.00 0.00 1397.00 922.50" xmlns="http://www.w3.org/2000/svg" xmlns:xlink="http://www.w3.org/1999/xlink">
<g id="graph0" class="graph" transform="scale(1 1) rotate(0) translate(36 886.5)">
<title>G</title>
<polygon fill="#f7f7f7" stroke="transparent" points="-36,36 -36,-886.5 1361,-886.5 1361,36 -36,36"/>
<!-- appmodelslog -->
<g id="node1" class="node">
<title>appmodelslog</title>
<polygon fill="none" stroke="black" points="141,-333.5 0,-333.5 0,-74.5 141,-74.5 141,-333.5"/>
<polygon fill="#d3d3d3" stroke="transparent" points="0.5,-296 0.5,-333 141.5,-333 141.5,-296 0.5,-296"/>
<polygon fill="none" stroke="black" points="0.5,-296 0.5,-333 141.5,-333 141.5,-296 0.5,-296"/>
<text text-anchor="start" x="60" y="-310.8" font-family="Helvetica Neue" font-size="14.00" fill="#333333">Log</text>
<polygon fill="#ffffff" stroke="transparent" points="0.5,-259 0.5,-296 141.5,-296 141.5,-259 0.5,-259"/>
<polygon fill="none" stroke="black" points="0.5,-259 0.5,-296 141.5,-296 141.5,-259 0.5,-259"/>
<text text-anchor="start" x="11.5" y="-273.8" font-family="Helvetica Neue" font-size="14.00" fill="#333333">id (bigint)</text>
<polygon fill="#ffffff" stroke="transparent" points="0.5,-222 0.5,-259 141.5,-259 141.5,-222 0.5,-222"/>
<polygon fill="none" stroke="black" points="0.5,-222 0.5,-259 141.5,-259 141.5,-222 0.5,-222"/>
<text text-anchor="start" x="11.5" y="-236.8" font-family="Helvetica Neue" font-size="14.00" fill="#333333">user_id (bigint)</text>
<polygon fill="#ffffff" stroke="transparent" points="0.5,-185 0.5,-222 141.5,-222 141.5,-185 0.5,-185"/>
<polygon fill="none" stroke="black" points="0.5,-185 0.5,-222 141.5,-222 141.5,-185 0.5,-185"/>
<text text-anchor="start" x="11.5" y="-199.8" font-family="Helvetica Neue" font-size="14.00" fill="#333333">performed (string)</text>
<polygon fill="#ffffff" stroke="transparent" points="0.5,-148 0.5,-185 141.5,-185 141.5,-148 0.5,-148"/>
<polygon fill="none" stroke="black" points="0.5,-148 0.5,-185 141.5,-185 141.5,-148 0.5,-148"/>
<text text-anchor="start" x="11.5" y="-162.8" font-family="Helvetica Neue" font-size="14.00" fill="#333333">action (string)</text>
<polygon fill="#ffffff" stroke="transparent" points="0.5,-111 0.5,-148 141.5,-148 141.5,-111 0.5,-111"/>
<polygon fill="none" stroke="black" points="0.5,-111 0.5,-148 141.5,-148 141.5,-111 0.5,-111"/>
<text text-anchor="start" x="11.5" y="-125.8" font-family="Helvetica Neue" font-size="14.00" fill="#333333">created_at (datetime)</text>
<polygon fill="#ffffff" stroke="transparent" points="0.5,-74 0.5,-111 141.5,-111 141.5,-74 0.5,-74"/>
<polygon fill="none" stroke="black" points="0.5,-74 0.5,-111 141.5,-111 141.5,-74 0.5,-74"/>
<text text-anchor="start" x="11.5" y="-88.8" font-family="Helvetica Neue" font-size="14.00" fill="#333333">updated_at (datetime)</text>
</g>
<!-- appmodelsuser -->
<g id="node2" class="node">
<title>appmodelsuser</title>
<polygon fill="none" stroke="black" points="445,-296 289,-296 289,0 445,0 445,-296"/>
<polygon fill="#d3d3d3" stroke="transparent" points="289,-259 289,-296 445,-296 445,-259 289,-259"/>
<polygon fill="none" stroke="black" points="289,-259 289,-296 445,-296 445,-259 289,-259"/>
<text text-anchor="start" x="353.5" y="-273.8" font-family="Helvetica Neue" font-size="14.00" fill="#333333">User</text>
<polygon fill="#ffffff" stroke="transparent" points="289,-222 289,-259 445,-259 445,-222 289,-222"/>
<polygon fill="none" stroke="black" points="289,-222 289,-259 445,-259 445,-222 289,-222"/>
<text text-anchor="start" x="300" y="-236.8" font-family="Helvetica Neue" font-size="14.00" fill="#333333">id (bigint)</text>
<polygon fill="#ffffff" stroke="transparent" points="289,-185 289,-222 445,-222 445,-185 289,-185"/>
<polygon fill="none" stroke="black" points="289,-185 289,-222 445,-222 445,-185 289,-185"/>
<text text-anchor="start" x="300" y="-199.8" font-family="Helvetica Neue" font-size="14.00" fill="#333333">name (string)</text>
<polygon fill="#ffffff" stroke="transparent" points="289,-148 289,-185 445,-185 445,-148 289,-148"/>
<polygon fill="none" stroke="black" points="289,-148 289,-185 445,-185 445,-148 289,-148"/>
<text text-anchor="start" x="300" y="-162.8" font-family="Helvetica Neue" font-size="14.00" fill="#333333">email (string)</text>
<polygon fill="#ffffff" stroke="transparent" points="289,-111 289,-148 445,-148 445,-111 289,-111"/>
<polygon fill="none" stroke="black" points="289,-111 289,-148 445,-148 445,-111 289,-111"/>
<text text-anchor="start" x="300" y="-125.8" font-family="Helvetica Neue" font-size="14.00" fill="#333333">password (string)</text>
<polygon fill="#ffffff" stroke="transparent" points="289,-74 289,-111 445,-111 445,-74 289,-74"/>
<polygon fill="none" stroke="black" points="289,-74 289,-111 445,-111 445,-74 289,-74"/>
<text text-anchor="start" x="300" y="-88.8" font-family="Helvetica Neue" font-size="14.00" fill="#333333">remember_token (string)</text>
<polygon fill="#ffffff" stroke="transparent" points="289,-37 289,-74 445,-74 445,-37 289,-37"/>
<polygon fill="none" stroke="black" points="289,-37 289,-74 445,-74 445,-37 289,-37"/>
<text text-anchor="start" x="300" y="-51.8" font-family="Helvetica Neue" font-size="14.00" fill="#333333">created_at (datetime)</text>
<polygon fill="#ffffff" stroke="transparent" points="289,0 289,-37 445,-37 445,0 289,0"/>
<polygon fill="none" stroke="black" points="289,0 289,-37 445,-37 445,0 289,0"/>
<text text-anchor="start" x="300" y="-14.8" font-family="Helvetica Neue" font-size="14.00" fill="#333333">updated_at (datetime)</text>
</g>
<!-- appmodelslog&#45;&gt;appmodelsuser -->
<g id="edge1" class="edge">
<title>appmodelslog:user_id&#45;&gt;appmodelsuser:id</title>
<path fill="none" stroke="#f77f00" stroke-width="1.8" d="M151.17,-241C180.17,-241 262.52,-241 283.89,-241"/>
<polygon fill="#f77f00" stroke="#f77f00" stroke-width="1.8" points="151,-241 141,-236.5 146,-241 141,-241 141,-241 141,-241 146,-241 141,-245.5 151,-241 151,-241"/>
<polygon fill="#f77f00" stroke="#f77f00" stroke-width="1.8" points="288,-236 288,-246 286,-246 286,-236 288,-236"/>
<polyline fill="none" stroke="#f77f00" stroke-width="1.8" points="289,-241 284,-241 "/>
<text text-anchor="middle" x="215" y="-244.8" font-family="Helvetica Neue" font-size="14.00"> </text>
<text text-anchor="middle" x="246.53" y="-229.8" font-family="Helvetica Neue" font-size="14.00">BelongsTo</text>
<text text-anchor="middle" x="246.53" y="-214.8" font-family="Helvetica Neue" font-size="14.00">user</text>
</g>
<!-- appmodelsuser&#45;&gt;appmodelslog -->
<g id="edge11" class="edge">
<title>appmodelsuser:id&#45;&gt;appmodelslog:user_id</title>
<path fill="none" stroke="#fcbf49" stroke-width="1.8" d="M289,-241C289,-241 217,-208 217,-208 217,-208 213,-208 213,-208 213,-208 169.49,-227.94 150.12,-236.82"/>
<polygon fill="#fcbf49" stroke="#fcbf49" stroke-width="1.8" points="150.09,-236.83 139.13,-236.91 145.55,-238.92 141,-241 141,-241 141,-241 145.55,-238.92 142.87,-245.09 150.09,-236.83 150.09,-236.83"/>
<text text-anchor="middle" x="215" y="-211.8" font-family="Helvetica Neue" font-size="14.00"> </text>
<text text-anchor="middle" x="246.74" y="-198.06" font-family="Helvetica Neue" font-size="14.00">HasMany</text>
<text text-anchor="middle" x="246.74" y="-183.06" font-family="Helvetica Neue" font-size="14.00">logs</text>
</g>
<!-- appmodelsproject -->
<g id="node7" class="node">
<title>appmodelsproject</title>
<polygon fill="none" stroke="black" points="740.5,-371 599.5,-371 599.5,-149 740.5,-149 740.5,-371"/>
<polygon fill="#d3d3d3" stroke="transparent" points="600,-334 600,-371 741,-371 741,-334 600,-334"/>
<polygon fill="none" stroke="black" points="600,-334 600,-371 741,-371 741,-334 600,-334"/>
<text text-anchor="start" x="651.5" y="-348.8" font-family="Helvetica Neue" font-size="14.00" fill="#333333">Project</text>
<polygon fill="#ffffff" stroke="transparent" points="600,-297 600,-334 741,-334 741,-297 600,-297"/>
<polygon fill="none" stroke="black" points="600,-297 600,-334 741,-334 741,-297 600,-297"/>
<text text-anchor="start" x="611" y="-311.8" font-family="Helvetica Neue" font-size="14.00" fill="#333333">id (bigint)</text>
<polygon fill="#ffffff" stroke="transparent" points="600,-260 600,-297 741,-297 741,-260 600,-260"/>
<polygon fill="none" stroke="black" points="600,-260 600,-297 741,-297 741,-260 600,-260"/>
<text text-anchor="start" x="611" y="-274.8" font-family="Helvetica Neue" font-size="14.00" fill="#333333">name (string)</text>
<polygon fill="#ffffff" stroke="transparent" points="600,-223 600,-260 741,-260 741,-223 600,-223"/>
<polygon fill="none" stroke="black" points="600,-223 600,-260 741,-260 741,-223 600,-223"/>
<text text-anchor="start" x="611" y="-237.8" font-family="Helvetica Neue" font-size="14.00" fill="#333333">user_id (bigint)</text>
<polygon fill="#ffffff" stroke="transparent" points="600,-186 600,-223 741,-223 741,-186 600,-186"/>
<polygon fill="none" stroke="black" points="600,-186 600,-223 741,-223 741,-186 600,-186"/>
<text text-anchor="start" x="611" y="-200.8" font-family="Helvetica Neue" font-size="14.00" fill="#333333">created_at (datetime)</text>
<polygon fill="#ffffff" stroke="transparent" points="600,-149 600,-186 741,-186 741,-149 600,-149"/>
<polygon fill="none" stroke="black" points="600,-149 600,-186 741,-186 741,-149 600,-149"/>
<text text-anchor="start" x="611" y="-163.8" font-family="Helvetica Neue" font-size="14.00" fill="#333333">updated_at (datetime)</text>
</g>
<!-- appmodelsuser&#45;&gt;appmodelsproject -->
<g id="edge10" class="edge">
<title>appmodelsuser:id&#45;&gt;appmodelsproject:user_id</title>
<path fill="none" stroke="#fcbf49" stroke-width="1.8" d="M445,-241C445,-241 554.63,-241 588.9,-241"/>
<polygon fill="#fcbf49" stroke="#fcbf49" stroke-width="1.8" points="589,-241 599,-245.5 594,-241 599,-241 599,-241 599,-241 594,-241 599,-236.5 589,-241 589,-241"/>
<text text-anchor="middle" x="519" y="-244.8" font-family="Helvetica Neue" font-size="14.00"> </text>
<text text-anchor="middle" x="489.95" y="-229.8" font-family="Helvetica Neue" font-size="14.00">HasMany</text>
<text text-anchor="middle" x="489.95" y="-214.8" font-family="Helvetica Neue" font-size="14.00">projects</text>
</g>
<!-- appmodelsmodelfield -->
<g id="node3" class="node">
<title>appmodelsmodelfield</title>
<polygon fill="none" stroke="black" points="747,-850.5 593,-850.5 593,-443.5 747,-443.5 747,-850.5"/>
<polygon fill="#d3d3d3" stroke="transparent" points="593,-813 593,-850 747,-850 747,-813 593,-813"/>
<polygon fill="none" stroke="black" points="593,-813 593,-850 747,-850 747,-813 593,-813"/>
<text text-anchor="start" x="640.5" y="-827.8" font-family="Helvetica Neue" font-size="14.00" fill="#333333">ModelField</text>
<polygon fill="#ffffff" stroke="transparent" points="593,-776 593,-813 747,-813 747,-776 593,-776"/>
<polygon fill="none" stroke="black" points="593,-776 593,-813 747,-813 747,-776 593,-776"/>
<text text-anchor="start" x="604" y="-790.8" font-family="Helvetica Neue" font-size="14.00" fill="#333333">id (bigint)</text>
<polygon fill="#ffffff" stroke="transparent" points="593,-739 593,-776 747,-776 747,-739 593,-739"/>
<polygon fill="none" stroke="black" points="593,-739 593,-776 747,-776 747,-739 593,-739"/>
<text text-anchor="start" x="604" y="-753.8" font-family="Helvetica Neue" font-size="14.00" fill="#333333">name (string)</text>
<polygon fill="#ffffff" stroke="transparent" points="593,-702 593,-739 747,-739 747,-702 593,-702"/>
<polygon fill="none" stroke="black" points="593,-702 593,-739 747,-739 747,-702 593,-702"/>
<text text-anchor="start" x="604" y="-716.8" font-family="Helvetica Neue" font-size="14.00" fill="#333333">type (boolean)</text>
<polygon fill="#ffffff" stroke="transparent" points="593,-665 593,-702 747,-702 747,-665 593,-665"/>
<polygon fill="none" stroke="black" points="593,-665 593,-702 747,-702 747,-665 593,-665"/>
<text text-anchor="start" x="604" y="-679.8" font-family="Helvetica Neue" font-size="14.00" fill="#333333">project_model_id (bigint)</text>
<polygon fill="#ffffff" stroke="transparent" points="593,-628 593,-665 747,-665 747,-628 593,-628"/>
<polygon fill="none" stroke="black" points="593,-628 593,-665 747,-665 747,-628 593,-628"/>
<text text-anchor="start" x="604" y="-642.8" font-family="Helvetica Neue" font-size="14.00" fill="#333333">references_id (bigint)</text>
<polygon fill="#ffffff" stroke="transparent" points="593,-591 593,-628 747,-628 747,-591 593,-591"/>
<polygon fill="none" stroke="black" points="593,-591 593,-628 747,-628 747,-591 593,-591"/>
<text text-anchor="start" x="604" y="-605.8" font-family="Helvetica Neue" font-size="14.00" fill="#333333">in_view (boolean)</text>
<polygon fill="#ffffff" stroke="transparent" points="593,-554 593,-591 747,-591 747,-554 593,-554"/>
<polygon fill="none" stroke="black" points="593,-554 593,-591 747,-591 747,-554 593,-554"/>
<text text-anchor="start" x="604" y="-568.8" font-family="Helvetica Neue" font-size="14.00" fill="#333333">in_edit (boolean)</text>
<polygon fill="#ffffff" stroke="transparent" points="593,-517 593,-554 747,-554 747,-517 593,-517"/>
<polygon fill="none" stroke="black" points="593,-517 593,-554 747,-554 747,-517 593,-517"/>
<text text-anchor="start" x="604" y="-531.8" font-family="Helvetica Neue" font-size="14.00" fill="#333333">in_create (boolean)</text>
<polygon fill="#ffffff" stroke="transparent" points="593,-480 593,-517 747,-517 747,-480 593,-480"/>
<polygon fill="none" stroke="black" points="593,-480 593,-517 747,-517 747,-480 593,-480"/>
<text text-anchor="start" x="604" y="-494.8" font-family="Helvetica Neue" font-size="14.00" fill="#333333">created_at (datetime)</text>
<polygon fill="#ffffff" stroke="transparent" points="593,-443 593,-480 747,-480 747,-443 593,-443"/>
<polygon fill="none" stroke="black" points="593,-443 593,-480 747,-480 747,-443 593,-443"/>
<text text-anchor="start" x="604" y="-457.8" font-family="Helvetica Neue" font-size="14.00" fill="#333333">updated_at (datetime)</text>
</g>
<!-- appmodelsprojectmodel -->
<g id="node4" class="node">
<title>appmodelsprojectmodel</title>
<polygon fill="none" stroke="black" points="1036,-722 895,-722 895,-426 1036,-426 1036,-722"/>
<polygon fill="#d3d3d3" stroke="transparent" points="895.5,-685 895.5,-722 1036.5,-722 1036.5,-685 895.5,-685"/>
<polygon fill="none" stroke="black" points="895.5,-685 895.5,-722 1036.5,-722 1036.5,-685 895.5,-685"/>
<text text-anchor="start" x="929.5" y="-699.8" font-family="Helvetica Neue" font-size="14.00" fill="#333333">ProjectModel</text>
<polygon fill="#ffffff" stroke="transparent" points="895.5,-648 895.5,-685 1036.5,-685 1036.5,-648 895.5,-648"/>
<polygon fill="none" stroke="black" points="895.5,-648 895.5,-685 1036.5,-685 1036.5,-648 895.5,-648"/>
<text text-anchor="start" x="906.5" y="-662.8" font-family="Helvetica Neue" font-size="14.00" fill="#333333">id (bigint)</text>
<polygon fill="#ffffff" stroke="transparent" points="895.5,-611 895.5,-648 1036.5,-648 1036.5,-611 895.5,-611"/>
<polygon fill="none" stroke="black" points="895.5,-611 895.5,-648 1036.5,-648 1036.5,-611 895.5,-611"/>
<text text-anchor="start" x="906.5" y="-625.8" font-family="Helvetica Neue" font-size="14.00" fill="#333333">name (string)</text>
<polygon fill="#ffffff" stroke="transparent" points="895.5,-574 895.5,-611 1036.5,-611 1036.5,-574 895.5,-574"/>
<polygon fill="none" stroke="black" points="895.5,-574 895.5,-611 1036.5,-611 1036.5,-574 895.5,-574"/>
<text text-anchor="start" x="906.5" y="-588.8" font-family="Helvetica Neue" font-size="14.00" fill="#333333">label (string)</text>
<polygon fill="#ffffff" stroke="transparent" points="895.5,-537 895.5,-574 1036.5,-574 1036.5,-537 895.5,-537"/>
<polygon fill="none" stroke="black" points="895.5,-537 895.5,-574 1036.5,-574 1036.5,-537 895.5,-537"/>
<text text-anchor="start" x="906.5" y="-551.8" font-family="Helvetica Neue" font-size="14.00" fill="#333333">soft_delete (boolean)</text>
<polygon fill="#ffffff" stroke="transparent" points="895.5,-500 895.5,-537 1036.5,-537 1036.5,-500 895.5,-500"/>
<polygon fill="none" stroke="black" points="895.5,-500 895.5,-537 1036.5,-537 1036.5,-500 895.5,-500"/>
<text text-anchor="start" x="906.5" y="-514.8" font-family="Helvetica Neue" font-size="14.00" fill="#333333">project_id (bigint)</text>
<polygon fill="#ffffff" stroke="transparent" points="895.5,-463 895.5,-500 1036.5,-500 1036.5,-463 895.5,-463"/>
<polygon fill="none" stroke="black" points="895.5,-463 895.5,-500 1036.5,-500 1036.5,-463 895.5,-463"/>
<text text-anchor="start" x="906.5" y="-477.8" font-family="Helvetica Neue" font-size="14.00" fill="#333333">created_at (datetime)</text>
<polygon fill="#ffffff" stroke="transparent" points="895.5,-426 895.5,-463 1036.5,-463 1036.5,-426 895.5,-426"/>
<polygon fill="none" stroke="black" points="895.5,-426 895.5,-463 1036.5,-463 1036.5,-426 895.5,-426"/>
<text text-anchor="start" x="906.5" y="-440.8" font-family="Helvetica Neue" font-size="14.00" fill="#333333">updated_at (datetime)</text>
</g>
<!-- appmodelsmodelfield&#45;&gt;appmodelsprojectmodel -->
<g id="edge2" class="edge">
<title>appmodelsmodelfield:id&#45;&gt;appmodelsprojectmodel:model_field_id</title>
<path fill="none" stroke="#fcbf49" stroke-width="1.8" d="M747,-795C747,-795 825.04,-715.71 887.62,-652.11"/>
<polygon fill="#fcbf49" stroke="#fcbf49" stroke-width="1.8" points="887.77,-651.96 897.99,-647.99 891.28,-648.4 894.78,-644.84 894.78,-644.84 894.78,-644.84 891.28,-648.4 891.58,-641.68 887.77,-651.96 887.77,-651.96"/>
<text text-anchor="middle" x="821" y="-723.8" font-family="Helvetica Neue" font-size="14.00"> </text>
<text text-anchor="middle" x="790.31" y="-712.36" font-family="Helvetica Neue" font-size="14.00">HasMany</text>
<text text-anchor="middle" x="790.31" y="-697.36" font-family="Helvetica Neue" font-size="14.00">model</text>
</g>
<!-- appmodelsprojectmodel&#45;&gt;appmodelsproject -->
<g id="edge9" class="edge">
<title>appmodelsprojectmodel:project_id&#45;&gt;appmodelsproject:id</title>
<path fill="none" stroke="#f77f00" stroke-width="1.8" d="M889.35,-509.37C872.38,-483.44 823,-408 823,-408 823,-408 760.98,-337.56 745.48,-319.95"/>
<polygon fill="#f77f00" stroke="#f77f00" stroke-width="1.8" points="889.52,-509.63 891.23,-520.46 892.26,-513.82 895,-518 895,-518 895,-518 892.26,-513.82 898.77,-515.54 889.52,-509.63 889.52,-509.63"/>
<polygon fill="#f77f00" stroke="#f77f00" stroke-width="1.8" points="738.91,-320.05 746.41,-313.45 747.74,-314.95 740.23,-321.56 738.91,-320.05"/>
<polyline fill="none" stroke="#f77f00" stroke-width="1.8" points="742,-316 745.3,-319.75 "/>
<text text-anchor="middle" x="821" y="-411.8" font-family="Helvetica Neue" font-size="14.00"> </text>
<text text-anchor="middle" x="853.05" y="-398.41" font-family="Helvetica Neue" font-size="14.00">BelongsTo</text>
<text text-anchor="middle" x="853.05" y="-383.41" font-family="Helvetica Neue" font-size="14.00">project</text>
</g>
<!-- appmodelsplugin -->
<g id="node5" class="node">
<title>appmodelsplugin</title>
<polygon fill="none" stroke="black" points="1325,-317 1184,-317 1184,-95 1325,-95 1325,-317"/>
<polygon fill="#d3d3d3" stroke="transparent" points="1184.5,-280 1184.5,-317 1325.5,-317 1325.5,-280 1184.5,-280"/>
<polygon fill="none" stroke="black" points="1184.5,-280 1184.5,-317 1325.5,-317 1325.5,-280 1184.5,-280"/>
<text text-anchor="start" x="1238.5" y="-294.8" font-family="Helvetica Neue" font-size="14.00" fill="#333333">Plugin</text>
<polygon fill="#ffffff" stroke="transparent" points="1184.5,-243 1184.5,-280 1325.5,-280 1325.5,-243 1184.5,-243"/>
<polygon fill="none" stroke="black" points="1184.5,-243 1184.5,-280 1325.5,-280 1325.5,-243 1184.5,-243"/>
<text text-anchor="start" x="1195.5" y="-257.8" font-family="Helvetica Neue" font-size="14.00" fill="#333333">id (bigint)</text>
<polygon fill="#ffffff" stroke="transparent" points="1184.5,-206 1184.5,-243 1325.5,-243 1325.5,-206 1184.5,-206"/>
<polygon fill="none" stroke="black" points="1184.5,-206 1184.5,-243 1325.5,-243 1325.5,-206 1184.5,-206"/>
<text text-anchor="start" x="1195.5" y="-220.8" font-family="Helvetica Neue" font-size="14.00" fill="#333333">name (string)</text>
<polygon fill="#ffffff" stroke="transparent" points="1184.5,-169 1184.5,-206 1325.5,-206 1325.5,-169 1184.5,-169"/>
<polygon fill="none" stroke="black" points="1184.5,-169 1184.5,-206 1325.5,-206 1325.5,-169 1184.5,-169"/>
<text text-anchor="start" x="1195.5" y="-183.8" font-family="Helvetica Neue" font-size="14.00" fill="#333333">description (string)</text>
<polygon fill="#ffffff" stroke="transparent" points="1184.5,-132 1184.5,-169 1325.5,-169 1325.5,-132 1184.5,-132"/>
<polygon fill="none" stroke="black" points="1184.5,-132 1184.5,-169 1325.5,-169 1325.5,-132 1184.5,-132"/>
<text text-anchor="start" x="1195.5" y="-146.8" font-family="Helvetica Neue" font-size="14.00" fill="#333333">created_at (datetime)</text>
<polygon fill="#ffffff" stroke="transparent" points="1184.5,-95 1184.5,-132 1325.5,-132 1325.5,-95 1184.5,-95"/>
<polygon fill="none" stroke="black" points="1184.5,-95 1184.5,-132 1325.5,-132 1325.5,-95 1184.5,-95"/>
<text text-anchor="start" x="1195.5" y="-109.8" font-family="Helvetica Neue" font-size="14.00" fill="#333333">updated_at (datetime)</text>
</g>
<!-- plugin_project -->
<g id="node6" class="node">
<title>plugin_project</title>
<polygon fill="none" stroke="black" points="1036,-354 895,-354 895,-132 1036,-132 1036,-354"/>
<polygon fill="#d3d3d3" stroke="transparent" points="895.5,-317 895.5,-354 1036.5,-354 1036.5,-317 895.5,-317"/>
<polygon fill="none" stroke="black" points="895.5,-317 895.5,-354 1036.5,-354 1036.5,-317 895.5,-317"/>
<text text-anchor="start" x="952.5" y="-331.8" font-family="Helvetica Neue" font-size="14.00" fill="#333333">Pivot</text>
<polygon fill="#ffffff" stroke="transparent" points="895.5,-280 895.5,-317 1036.5,-317 1036.5,-280 895.5,-280"/>
<polygon fill="none" stroke="black" points="895.5,-280 895.5,-317 1036.5,-317 1036.5,-280 895.5,-280"/>
<text text-anchor="start" x="906.5" y="-294.8" font-family="Helvetica Neue" font-size="14.00" fill="#333333">id (bigint)</text>
<polygon fill="#ffffff" stroke="transparent" points="895.5,-243 895.5,-280 1036.5,-280 1036.5,-243 895.5,-243"/>
<polygon fill="none" stroke="black" points="895.5,-243 895.5,-280 1036.5,-280 1036.5,-243 895.5,-243"/>
<text text-anchor="start" x="906.5" y="-257.8" font-family="Helvetica Neue" font-size="14.00" fill="#333333">plugin_id (bigint)</text>
<polygon fill="#ffffff" stroke="transparent" points="895.5,-206 895.5,-243 1036.5,-243 1036.5,-206 895.5,-206"/>
<polygon fill="none" stroke="black" points="895.5,-206 895.5,-243 1036.5,-243 1036.5,-206 895.5,-206"/>
<text text-anchor="start" x="906.5" y="-220.8" font-family="Helvetica Neue" font-size="14.00" fill="#333333">project_id (bigint)</text>
<polygon fill="#ffffff" stroke="transparent" points="895.5,-169 895.5,-206 1036.5,-206 1036.5,-169 895.5,-169"/>
<polygon fill="none" stroke="black" points="895.5,-169 895.5,-206 1036.5,-206 1036.5,-169 895.5,-169"/>
<text text-anchor="start" x="906.5" y="-183.8" font-family="Helvetica Neue" font-size="14.00" fill="#333333">created_at (datetime)</text>
<polygon fill="#ffffff" stroke="transparent" points="895.5,-132 895.5,-169 1036.5,-169 1036.5,-132 895.5,-132"/>
<polygon fill="none" stroke="black" points="895.5,-132 895.5,-169 1036.5,-169 1036.5,-132 895.5,-132"/>
<text text-anchor="start" x="906.5" y="-146.8" font-family="Helvetica Neue" font-size="14.00" fill="#333333">updated_at (datetime)</text>
</g>
<!-- appmodelsplugin&#45;&gt;plugin_project -->
<g id="edge3" class="edge">
<title>appmodelsplugin:id&#45;&gt;plugin_project:plugin_id</title>
<path fill="none" stroke="#003049" stroke-width="1.8" d="M1184,-262C1184,-262 1112,-211 1112,-211 1112,-211 1108,-211 1108,-211 1108,-211 1063.17,-242.75 1044.26,-256.15"/>
<polygon fill="#003049" stroke="#003049" stroke-width="1.8" points="1042.14,-253.36 1036,-262 1046.18,-259.08 1042.14,-253.36"/>
<text text-anchor="middle" x="1110" y="-214.8" font-family="Helvetica Neue" font-size="14.00"> </text>
<text text-anchor="middle" x="1070" y="-201.57" font-family="Helvetica Neue" font-size="14.00">BelongsToMany</text>
<text text-anchor="middle" x="1070" y="-186.57" font-family="Helvetica Neue" font-size="14.00">projects</text>
</g>
<!-- plugin_project&#45;&gt;appmodelsplugin -->
<g id="edge8" class="edge">
<title>plugin_project:plugin_id&#45;&gt;appmodelsplugin:id</title>
<path fill="none" stroke="#003049" stroke-width="1.8" d="M1036,-262C1036,-262 1140.39,-262 1173.83,-262"/>
<polygon fill="#003049" stroke="#003049" stroke-width="1.8" points="1174,-265.5 1184,-262 1174,-258.5 1174,-265.5"/>
<text text-anchor="middle" x="1110" y="-265.8" font-family="Helvetica Neue" font-size="14.00"> </text>
<text text-anchor="middle" x="1149.41" y="-250.8" font-family="Helvetica Neue" font-size="14.00">BelongsToMany</text>
<text text-anchor="middle" x="1149.41" y="-235.8" font-family="Helvetica Neue" font-size="14.00">plugins</text>
</g>
<!-- plugin_project&#45;&gt;appmodelsproject -->
<g id="edge4" class="edge">
<title>plugin_project:project_id&#45;&gt;appmodelsproject:id</title>
<path fill="none" stroke="#003049" stroke-width="1.8" d="M895,-224C895,-224 823,-219 823,-219 823,-219 819,-219 819,-219 819,-219 766.69,-284.9 748.3,-308.06"/>
<polygon fill="#003049" stroke="#003049" stroke-width="1.8" points="745.48,-305.99 742,-316 750.96,-310.34 745.48,-305.99"/>
<text text-anchor="middle" x="821" y="-222.8" font-family="Helvetica Neue" font-size="14.00"> </text>
<text text-anchor="middle" x="851.83" y="-252.5" font-family="Helvetica Neue" font-size="14.00">BelongsToMany</text>
<text text-anchor="middle" x="851.83" y="-237.5" font-family="Helvetica Neue" font-size="14.00">projects</text>
</g>
<!-- appmodelsproject&#45;&gt;appmodelsuser -->
<g id="edge5" class="edge">
<title>appmodelsproject:user_id&#45;&gt;appmodelsuser:id</title>
<path fill="none" stroke="#f77f00" stroke-width="1.8" d="M590.35,-235.35C570.05,-222.07 521,-190 521,-190 521,-190 517,-190 517,-190 517,-190 464.79,-226.98 449.29,-237.96"/>
<polygon fill="#f77f00" stroke="#f77f00" stroke-width="1.8" points="590.63,-235.53 596.54,-244.77 594.82,-238.26 599,-241 599,-241 599,-241 594.82,-238.26 601.46,-237.23 590.63,-235.53 590.63,-235.53"/>
<polygon fill="#f77f00" stroke="#f77f00" stroke-width="1.8" points="448.71,-244.5 442.93,-236.34 444.56,-235.19 450.34,-243.35 448.71,-244.5"/>
<polyline fill="none" stroke="#f77f00" stroke-width="1.8" points="445,-241 449.08,-238.11 "/>
<text text-anchor="middle" x="519" y="-193.8" font-family="Helvetica Neue" font-size="14.00"> </text>
<text text-anchor="middle" x="489.94" y="-178.8" font-family="Helvetica Neue" font-size="14.00">BelongsTo</text>
<text text-anchor="middle" x="489.94" y="-163.8" font-family="Helvetica Neue" font-size="14.00">user</text>
</g>
<!-- appmodelsproject&#45;&gt;appmodelsprojectmodel -->
<g id="edge6" class="edge">
<title>appmodelsproject:id&#45;&gt;appmodelsprojectmodel:project_id</title>
<path fill="none" stroke="#fcbf49" stroke-width="1.8" d="M742,-316C742,-316 819,-438 819,-438 819,-438 869.17,-490.81 887.99,-510.62"/>
<polygon fill="#fcbf49" stroke="#fcbf49" stroke-width="1.8" points="888.11,-510.75 891.74,-521.1 891.56,-514.37 895,-518 895,-518 895,-518 891.56,-514.37 898.26,-514.9 888.11,-510.75 888.11,-510.75"/>
<text text-anchor="middle" x="821" y="-444.8" font-family="Helvetica Neue" font-size="14.00"> </text>
<text text-anchor="middle" x="767.73" y="-408.15" font-family="Helvetica Neue" font-size="14.00">HasMany</text>
<text text-anchor="middle" x="767.73" y="-393.15" font-family="Helvetica Neue" font-size="14.00">projectModels</text>
</g>
<!-- appmodelsproject&#45;&gt;plugin_project -->
<g id="edge7" class="edge">
<title>appmodelsproject:id&#45;&gt;plugin_project:project_id</title>
<path fill="none" stroke="#003049" stroke-width="1.8" d="M742,-316C742,-316 853.97,-248.67 886.34,-229.21"/>
<polygon fill="#003049" stroke="#003049" stroke-width="1.8" points="888.23,-232.15 895,-224 884.63,-226.15 888.23,-232.15"/>
<text text-anchor="middle" x="821" y="-271.8" font-family="Helvetica Neue" font-size="14.00"> </text>
<text text-anchor="middle" x="858.67" y="-291.4" font-family="Helvetica Neue" font-size="14.00">BelongsToMany</text>
<text text-anchor="middle" x="858.67" y="-276.4" font-family="Helvetica Neue" font-size="14.00">plugins</text>
</g>
<!-- appmodelspluginproject -->
<g id="node8" class="node">
<title>appmodelspluginproject</title>
<polygon fill="none" stroke="black" points="120.5,-506 20.5,-506 20.5,-406 120.5,-406 120.5,-506"/>
<polygon fill="#d3d3d3" stroke="transparent" points="20.5,-469 20.5,-506 120.5,-506 120.5,-469 20.5,-469"/>
<polygon fill="none" stroke="black" points="20.5,-469 20.5,-506 120.5,-506 120.5,-469 20.5,-469"/>
<text text-anchor="start" x="35.5" y="-483.8" font-family="Helvetica Neue" font-size="14.00" fill="#333333">PluginProject</text>
</g>
</g>
</svg>
